# xmcd
#
# Track frame offsets:
#	150
#	18112
#	36827
#	55485
#	75335
#	96070
#	114560
#	132997
#	152272
#	170445
#	188915
#	205177
#
# Disc length: 2960 seconds
#
# Revision: 1
# Processed by: cddbd v1.5.1PL0 Copyright (c) Steve Scherf et al.
# Submitted via: CDex 1.50Beta5
#
DISCID=8e0b8e0c
DTITLE=RUDE BOY FACE - XX BAD
DYEAR=2001
DGENRE=Rock
TTITLE0=RUDE BOY FACE/マグナムBaby
TTITLE1=MEG from 恐山 Crew/風になりたい
TTITLE2=GOKI and SHOCK EYE/Party
TTITLE3=RANKIN TAXI/My Weapon
TTITLE4=SYNDICATE GIRLS/Flower
TTITLE5=HAN KUN/ハイな気分
TTITLE6=H-MAN/物申すっ
TTITLE7=MONKEY KEN/頂上
TTITLE8=LADY Q/連日連夜の決戦
TTITLE9=KEY ROCK/Progress
TTITLE10=RED RICE/わがまま Lady
TTITLE11=ATOOSHI and MAJI MAN/Heartbeat
EXTD=
EXTT0=
EXTT1=
EXTT2=
EXTT3=
EXTT4=
EXTT5=
EXTT6=
EXTT7=
EXTT8=
EXTT9=
EXTT10=
EXTT11=
PLAYORDER=
